<?xml version="1.0" encoding="UTF-8" standalone="no"?><!DOCTYPE svg PUBLIC "-//W3C//DTD SVG 1.1//EN" "http://www.w3.org/Graphics/SVG/1.1/DTD/svg11.dtd"><svg width="100%" height="100%" viewBox="0 0 512 512" version="1.1" xmlns="http://www.w3.org/2000/svg" xmlns:xlink="http://www.w3.org/1999/xlink" xml:space="preserve" xmlns:serif="http://www.serif.com/" style="fill-rule:evenodd;clip-rule:evenodd;stroke-linejoin:round;stroke-miterlimit:1.41421;"><path d="M492.438,397.75l-2.375,-7.156c-5.625,-16.719 -24.063,-34.156 -41,-38.75l-62.688,-17.125c-17,-4.625 -41.25,1.594 -53.688,14.031l-22.687,22.688c-82.453,-22.281 -147.109,-86.938 -169.359,-169.375l22.688,-22.688c12.438,-12.438 18.656,-36.656 14.031,-53.656l-17.094,-62.719c-4.625,-16.969 -22.094,-35.406 -38.781,-40.969l-7.156,-2.406c-16.719,-5.563 -40.563,0.063 -53,12.5l-33.938,33.969c-6.063,6.031 -9.938,23.281 -9.938,23.344c-1.187,107.75 41.063,211.562 117.281,287.781c76.031,76.031 179.453,118.219 286.891,117.313c0.563,0 18.313,-3.813 24.375,-9.844l33.938,-33.938c12.437,-12.437 18.062,-36.281 12.5,-53Z" style="fill:#fff;fill-rule:nonzero;"/></svg>